<?xml version="1.0" standalone="no"?>
<!DOCTYPE svg PUBLIC "-//W3C//DTD SVG 20010904//EN"
 "http://www.w3.org/TR/2001/REC-SVG-20010904/DTD/svg10.dtd">
<svg version="1.0" xmlns="http://www.w3.org/2000/svg"
 width="600.000000pt" height="600.000000pt" viewBox="0 0 600.000000 600.000000"
 preserveAspectRatio="xMidYMid meet">
<metadata>
Created by potrace 1.11, written by Peter Selinger 2001-2013
</metadata>
<g transform="translate(0.000000,600.000000) scale(0.100000,-0.100000)"
fill="#000000" stroke="none">
<path d="M870 5728 c-247 -51 -413 -135 -564 -285 -129 -129 -240 -318 -272
-465 -34 -157 -33 -119 -31 -2003 2 -1012 6 -1856 11 -1875 16 -73 38 -155 44
-165 4 -5 7 -15 8 -21 1 -6 18 -44 37 -85 143 -297 447 -522 765 -566 75 -10
4223 -10 4282 0 76 14 230 67 299 104 283 150 474 410 535 728 13 70 15 304
15 1900 -1 1973 1 1889 -56 2054 -117 341 -408 595 -768 670 -87 19 -168 19
-2175 19 -1249 0 -2103 -4 -2130 -10z"/>
</g>
</svg>
